<?xml version="1.0" encoding="utf-8"?>
<!-- Generator: Adobe Illustrator 27.1.0, SVG Export Plug-In . SVG Version: 6.00 Build 0)  -->
<svg version="1.1" id="Calque_1" xmlns="http://www.w3.org/2000/svg" xmlns:xlink="http://www.w3.org/1999/xlink" x="0px" y="0px"
	 viewBox="0 0 411.76 109.14" style="enable-background:new 0 0 411.76 109.14;" xml:space="preserve">
<style type="text/css">
	.st0{fill:#C2D569;}
	.st1{fill:#86A428;}
	.st2{opacity:0.5;fill:#4C575D;}
	.st3{fill:#4C575D;}
</style>
<path class="st0" d="M339.41,49.1c0,0-46.73-9.41-87.19,17.58c-13.41,8.95-31.95,9.54-46.8,0.92c-13.21-7.66-15.97-27.08-7.83-38.9
	c7.68-11.15,18.88-12.75,26.52-9.85c0,0-23.44-3.06-27.8,24.41c-1.34,8.44,3.28,17.25,11.01,23.38c5.35,4.25,14.4,6.26,20.94,5.57
	c8.85-0.93,13.65-1.49,22.74-6.96c42.85-25.82,64.53-19.55,88.79-16.65L339.41,49.1z"/>
<path class="st0" d="M107.53,49.47c0,0,51.99-8.63,82.13,10.31c13.65,8.58,30.82,15.38,45.67,6.76c13.21-7.66,15.97-27.08,7.83-38.9
	c-7.68-11.15-18.88-12.75-26.52-9.85c0,0,23.44-3.06,27.8,24.41c1.34,8.44-3.28,17.25-11.01,23.38c-5.35,4.25-15.33,3.45-21.72,1.86
	c-7.69-1.9-12.65-6.92-19.38-11.03c-36.25-22.13-64.76-9.34-85.38-6.87L107.53,49.47z"/>
<path class="st1" d="M193.15,26.36h-11.49v44.74h-7.49V20.65C174.17,6.89,180.21,0,192.3,0h0.85v7.87
	c-7.66,0-11.49,3.54-11.49,10.64l11.62-0.12L193.15,26.36z"/>
<path class="st1" d="M259.69,71.11h-7.29V3.01h7.29V71.11z"/>
<path class="st1" d="M276.1,9.83h-7.28V2.89h7.28V9.83z M276.1,71.11h-7.28V21.28h7.28V71.11z"/>
<path class="st1" d="M322,71.11h-25.09c-9.09,0-13.57-4.98-13.42-14.91c0-9.17,4.71-13.77,14.11-13.77h17.23l-0.11-4.5
	c0.16-6.01-2.62-9.02-8.33-9.02h-20.11v-7.53l20.01,0.12c10.79,0.31,16.02,5.97,15.72,17V71.11z M314.83,63.59V49.95h-18.49
	c-4.01,0.08-6.02,2.39-6.02,6.93c0,4.48,2.05,6.71,6.14,6.71H314.83z"/>
<path class="st1" d="M403.07,3.01c0,0-31.91,5-44.27,13.33c-12.36,8.33-28.85,26.13-14.04,54.27c0,0,38.53,18.12,54.48-24.45
	C399.24,46.17,405.23,30.58,403.07,3.01z M381.92,61.07c-14.64,20.1-35.95,8.09-35.95,8.09c-3.9-3.97-6.86-21.3,4.79-32.95
	c11.64-11.65,37.08-13.35,37.08-13.35C389.61,50.61,381.92,61.07,381.92,61.07z"/>
<path class="st2" d="M0.56,33.28c-0.05-0.04-0.1-0.08-0.14-0.12c0.02-0.01,0.06-0.02,0.1-0.04C0.53,33.17,0.55,33.22,0.56,33.28z"/>
<path class="st3" d="M110.76,45.69L73.11,56.8v1.4c0,2.2,0.84,3.8,2.51,4.8c1.15,0.6,3.15,0.89,5.98,0.89h29.05v7.21h-30.9
	c-5.33,0-9.26-0.8-11.79-2.4c-3.2-1.9-4.81-4.92-4.81-9.05V39.76c0-7.11,5.23-10.67,15.7-10.67h17.26c9.76,0,14.64,3.78,14.64,11.34
	V45.69z M100.71,41.61v-0.61c0-3.2-2.61-4.81-7.82-4.81H82.05c-6.03,0-9.05,1.81-9.05,5.42v8.21L100.71,41.61z"/>
<path class="st3" d="M165.89,60.71c0,3.58-1.6,6.31-4.8,8.21c-2.27,1.45-5.7,2.18-10.28,2.18h-17.04c-5.22,0-9.12-0.93-11.7-2.79
	c-2.59-1.86-3.88-4.39-3.88-7.6V39.76c0-3.65,1.64-6.48,4.92-8.49c2.38-1.45,5.94-2.18,10.67-2.18h17.04
	c4.73,0,8.19,0.73,10.39,2.18c3.13,1.9,4.69,4.73,4.69,8.49V60.71z M156.06,58.76V41.72c0-1.94-0.76-3.35-2.29-4.25
	c-1.23-0.86-3.13-1.29-5.7-1.29h-11.68c-2.68,0-4.67,0.43-5.98,1.29c-1.6,0.89-2.4,2.31-2.4,4.25v16.93c0,1.83,0.8,3.18,2.4,4.08
	c1.23,0.78,2.98,1.17,5.25,1.17h13.07c2.2,0,3.87-0.39,5.03-1.17C155.3,61.83,156.06,60.51,156.06,58.76z"/>
<path class="st3" d="M32.96,40.07v9.2h10.51v7.47c0,4.17-2.81,6.26-8.44,6.26H20.62c-3.2,0-5.49-0.41-6.87-1.23
	c-1.75-1.08-2.63-2.87-2.63-5.36V29.71c0-2.46,0.8-4.17,2.4-5.14c1.38-0.86,3.82-1.29,7.32-1.29h29.61v-8.05h-31.9
	c-5.59,0-9.87,0.86-12.85,2.57c-2.35,1.34-3.95,2.89-4.81,4.64C0.3,23.82,0,25.81,0,28.42v28.33c0,2.87,0.19,4.88,0.56,6.03
	c0.71,2.01,2.12,3.72,4.25,5.14c3.13,2.12,7.71,3.18,13.74,3.18h19.33c5.18,0,9.29-1.25,12.35-3.74c2.83-2.2,4.25-5.46,4.25-9.78
	V40.07H32.96z"/>
<path class="st0" d="M219.75,73.09c-15.83,0-28.71-12.88-28.71-28.71c0-15.83,12.88-28.71,28.71-28.71
	c15.83,0,28.71,12.88,28.71,28.71C248.45,60.22,235.57,73.09,219.75,73.09z M219.75,21.2c-12.79,0-23.19,10.4-23.19,23.19
	s10.4,23.19,23.19,23.19s23.19-10.4,23.19-23.19S232.53,21.2,219.75,21.2z"/>
<path class="st1" d="M235.19,19.89c5.71,5.63,9.26,13.48,9.26,22.17c0,16.05-12.09,29.25-27.58,30.87c1,0.11,2.02,0.17,3.05,0.17
	c15.8,0,28.61-12.91,28.61-28.85C248.52,33.99,243.2,25.01,235.19,19.89z"/>
<rect x="330.8" y="67.97" transform="matrix(0.9935 -0.1137 0.1137 0.9935 -7.4179 42.6682)" class="st3" width="79.13" height="36.79"/>
<g>
	<path class="st0" d="M336.15,91.02c-0.19-1.69-0.05-3.34,0.44-4.93c0.48-1.59,1.22-3.02,2.22-4.29c1-1.27,2.21-2.32,3.64-3.16
		c1.43-0.84,3-1.36,4.72-1.56c1.7-0.19,3.34-0.04,4.93,0.45c1.59,0.5,3.02,1.25,4.29,2.26c1.27,1.01,2.32,2.23,3.15,3.67
		c0.83,1.44,1.34,3.01,1.54,4.7c0.2,1.72,0.05,3.37-0.43,4.95c-0.49,1.58-1.23,3-2.24,4.26c-1.01,1.26-2.23,2.29-3.68,3.12
		s-3.01,1.33-4.71,1.52c-1.72,0.2-3.37,0.06-4.95-0.42c-1.58-0.48-3-1.21-4.25-2.21c-1.26-1-2.3-2.21-3.13-3.64
		C336.86,94.32,336.34,92.74,336.15,91.02z M340.26,90.55c0.14,1.18,0.48,2.27,1.03,3.26c0.55,0.99,1.26,1.82,2.12,2.5
		c0.86,0.68,1.82,1.19,2.89,1.52c1.07,0.33,2.19,0.43,3.37,0.29c1.14-0.13,2.19-0.48,3.15-1.04c0.96-0.56,1.78-1.27,2.44-2.13
		c0.66-0.85,1.15-1.83,1.46-2.91c0.32-1.09,0.41-2.22,0.27-3.41c-0.14-1.18-0.49-2.26-1.05-3.25c-0.57-0.99-1.27-1.83-2.12-2.52
		c-0.85-0.69-1.8-1.21-2.87-1.54c-1.07-0.33-2.18-0.43-3.34-0.29s-2.22,0.48-3.19,1.04c-0.96,0.56-1.78,1.28-2.43,2.14
		c-0.66,0.87-1.14,1.84-1.46,2.93C340.22,88.24,340.13,89.37,340.26,90.55z"/>
	<path class="st0" d="M380.5,98.25c-0.08-0.15-0.23-0.41-0.45-0.8c-0.21-0.38-0.48-0.85-0.79-1.4c-0.31-0.55-0.65-1.16-1.02-1.83
		c-0.37-0.67-0.76-1.37-1.15-2.09l-8.4,0.96l-1.94,6.73l-4.05,0.46c0.07-0.21,0.22-0.73,0.47-1.56c0.24-0.83,0.55-1.86,0.92-3.09
		c0.37-1.23,0.78-2.6,1.22-4.11c0.45-1.51,0.91-3.05,1.39-4.62c0.48-1.57,0.94-3.11,1.39-4.62c0.45-1.51,0.86-2.88,1.23-4.1
		c0.37-1.23,0.67-2.26,0.92-3.09c0.24-0.83,0.4-1.35,0.47-1.56c0.11,0.19,0.39,0.66,0.82,1.41c0.44,0.75,0.97,1.69,1.61,2.8
		s1.34,2.35,2.12,3.72c0.78,1.37,1.58,2.77,2.39,4.18c0.82,1.42,1.62,2.82,2.39,4.18c0.78,1.37,1.49,2.61,2.12,3.72
		c0.64,1.11,1.17,2.05,1.59,2.8c0.43,0.75,0.69,1.23,0.81,1.42L380.5,98.25z M369.7,89.49l5.56-0.64l-3.08-5.55
		c-0.02-0.02-0.1-0.16-0.22-0.43c-0.12-0.27-0.22-0.51-0.29-0.73c-0.02,0.23-0.06,0.49-0.12,0.77c-0.06,0.29-0.08,0.45-0.08,0.47
		L369.7,89.49z"/>
	<path class="st0" d="M384.57,73.07l6.32-0.72c2.45-0.28,4.58-0.15,6.37,0.41c1.79,0.55,3.29,1.36,4.5,2.42
		c1.21,1.06,2.14,2.31,2.79,3.76c0.65,1.45,1.06,2.92,1.24,4.42c0.21,1.83,0.07,3.51-0.42,5.05c-0.49,1.53-1.24,2.88-2.23,4.04
		c-1,1.15-2.21,2.09-3.63,2.8c-1.42,0.72-2.96,1.17-4.61,1.36l-7.53,0.86L384.57,73.07z M393.81,92.8c1.27-0.15,2.42-0.46,3.45-0.94
		c1.03-0.48,1.89-1.12,2.59-1.91c0.7-0.79,1.21-1.72,1.53-2.78c0.32-1.07,0.4-2.27,0.25-3.6c-0.17-1.52-0.58-2.77-1.23-3.78
		c-0.65-1-1.41-1.78-2.29-2.35c-0.88-0.56-1.83-0.94-2.84-1.13c-1.02-0.19-1.97-0.23-2.86-0.13l-3.28,0.38l1.9,16.56L393.81,92.8z"
		/>
</g>
</svg>
